<svg width="627" height="413" viewBox="0 0 627 413" fill="none" xmlns="http://www.w3.org/2000/svg">
<g filter="url(#filter0_d_4604_18428)">
<path d="M610.383 323.021H0V323.609H610.383V323.021Z" fill="black"/>
<path fill-rule="evenodd" clip-rule="evenodd" d="M364.207 307.377H280.345C281.344 308.906 281.932 310.671 281.932 312.494C281.932 314.317 281.344 316.081 280.345 317.61H364.324L365.324 316.669V308.554L364.207 307.377Z" fill="white"/>
<path fill-rule="evenodd" clip-rule="evenodd" d="M375.205 306.495C375.852 306.495 376.499 306.789 376.91 307.201C377.322 307.613 377.557 308.142 377.557 308.73V316.375C377.557 316.963 377.322 317.493 376.91 317.904C376.499 318.316 375.852 318.61 375.205 318.61C342.801 318.61 310.397 318.61 277.993 318.61V316.787H343.448C343.683 316.787 343.918 316.669 344.095 316.493C344.271 316.316 344.389 316.081 344.389 315.787V309.2C344.389 308.906 344.271 308.671 344.095 308.495C343.918 308.318 343.683 308.201 343.448 308.201H277.993V306.378C310.397 306.436 342.801 306.495 375.205 306.495Z" fill="#3273AF"/>
<path fill-rule="evenodd" clip-rule="evenodd" d="M368.5 319.551H275.816C276.934 321.256 277.58 323.197 277.58 325.197C277.58 327.255 276.934 329.137 275.816 330.842H368.617L369.735 329.784V320.786L368.5 319.551Z" fill="white"/>
<path fill-rule="evenodd" clip-rule="evenodd" d="M380.674 318.552C381.438 318.552 382.085 318.846 382.556 319.316C382.967 319.728 383.261 320.316 383.261 320.963V329.431C383.261 330.078 382.967 330.666 382.556 331.078C382.085 331.548 381.438 331.842 380.674 331.842C344.859 331.842 309.044 331.842 273.229 331.842V329.843H349.563C349.858 329.843 350.093 329.725 350.269 329.549C350.446 329.372 350.563 329.078 350.563 328.784V321.551C350.563 321.257 350.446 321.022 350.269 320.786C350.093 320.61 349.799 320.492 349.563 320.492H273.288V318.493C309.103 318.552 344.918 318.552 380.674 318.552Z" fill="#ADACAC"/>
<path fill-rule="evenodd" clip-rule="evenodd" d="M374.439 294.322C375.086 294.322 375.733 294.616 376.144 295.027C376.556 295.439 376.791 295.968 376.791 296.556V304.202C376.791 304.79 376.556 305.319 376.144 305.731C375.733 306.142 375.086 306.436 374.439 306.436C340.741 306.436 315.335 306.436 281.696 306.436C281.049 306.436 280.403 306.142 279.991 305.731C279.579 305.319 279.344 304.79 279.344 304.202V296.556C279.344 295.968 279.579 295.439 279.991 295.027C280.403 294.616 281.049 294.322 281.696 294.322C315.335 294.322 340.741 294.322 374.439 294.322Z" fill="#8AC343"/>
<path d="M260.173 132.89L257.939 127.598L238.296 127.774L236.12 132.949L260.173 132.89Z" fill="#3273AF"/>
<path d="M235.826 136.065L236.297 140.005L239.061 163.529C239.178 164.705 240.178 165.587 241.354 165.587L255.41 165.47C256.586 165.47 257.586 164.587 257.703 163.411L260.526 135.653L235.826 136.065Z" fill="#3273AF"/>
<path d="M262.159 131.077L234.107 131.308L234.152 136.718L262.204 136.488L262.159 131.077Z" fill="#ADACAC"/>
<path d="M248.941 148.416C249.588 150.827 250.176 152.474 252.176 153.356C253.234 151.827 253.234 149.416 251.999 147.358C250.411 144.652 247.412 143.476 245.295 144.711C245.236 144.77 245.177 144.77 245.118 144.829C246.941 145.711 248.353 146.123 248.941 148.416Z" fill="#545454"/>
<path d="M248.294 151.827C247.765 150.768 247.706 149.71 247.412 148.592C246.942 146.887 245.412 146.593 244.06 145.887C243.06 147.416 243.119 149.769 244.295 151.768C245.824 154.473 248.823 155.65 250.941 154.473C249.823 153.944 248.941 153.062 248.294 151.827Z" fill="#545454"/>
<path d="M502.467 257.272H501.879V353.367H502.467V257.272Z" fill="#595959"/>
<path d="M500.291 308.143H499.703V314.787H500.291V308.143Z" fill="#595959"/>
<path d="M500.291 271.798H499.703V306.143H500.291V271.798Z" fill="#595959"/>
<path d="M472.18 367.481H471.592V354.778H534.636V364.246H534.048V355.366H472.18V367.481Z" fill="#595959"/>
<path d="M471.887 374.303C468.123 374.303 465.065 371.245 465.065 367.481C465.065 363.717 468.123 360.659 471.887 360.659C475.65 360.659 478.708 363.717 478.708 367.481C478.708 371.245 475.65 374.303 471.887 374.303ZM471.887 361.247C468.476 361.247 465.653 364.07 465.653 367.481C465.653 370.892 468.476 373.715 471.887 373.715C475.298 373.715 478.12 370.892 478.12 367.481C478.12 364.011 475.298 361.247 471.887 361.247Z" fill="#595959"/>
<path d="M534.342 371.01C530.578 371.01 527.52 367.952 527.52 364.188C527.52 360.424 530.578 357.366 534.342 357.366C538.106 357.366 541.164 360.424 541.164 364.188C541.164 367.952 538.106 371.01 534.342 371.01ZM534.342 357.954C530.931 357.954 528.108 360.777 528.108 364.188C528.108 367.599 530.931 370.422 534.342 370.422C537.753 370.422 540.576 367.599 540.576 364.188C540.576 360.777 537.753 357.954 534.342 357.954Z" fill="#595959"/>
<path fill-rule="evenodd" clip-rule="evenodd" d="M480.767 188.348C465.182 189.877 449.657 195.816 440.776 204.991C425.78 220.516 424.78 252.567 444.187 256.566C466.182 261.154 490.294 242.981 495.469 216.635C498.115 203.167 500.585 186.407 480.767 188.348Z" fill="#FE9134"/>
<path fill-rule="evenodd" clip-rule="evenodd" d="M488 188.348C472.416 189.877 456.89 195.816 448.01 204.991C433.014 220.516 432.014 252.567 451.421 256.566C473.416 261.154 497.527 242.981 502.703 216.635C505.349 203.167 507.76 186.407 488 188.348Z" fill="#595959"/>
<path d="M557.511 177.72L540.944 211.972L541.474 212.228L558.041 177.976L557.511 177.72Z" fill="#595959"/>
<path d="M547.404 148.291L546.826 148.4L560.494 221.052L561.072 220.943L547.404 148.291Z" fill="#595959"/>
<path fill-rule="evenodd" clip-rule="evenodd" d="M444.716 227.162C436.895 233.219 435.954 241.629 436.953 246.569C438.365 253.214 442.599 257.566 448.304 260.507C459.36 266.152 494.645 267.74 520.639 265.976C532.93 265.153 553.984 261.271 562.923 248.98C576.979 229.632 556.983 219.752 541.458 219.223C528.167 218.811 505.584 218.223 486.647 218.752C474.356 219.105 455.126 219.105 444.716 227.162Z" fill="#ADACAC"/>
<path d="M531.872 264.859L531.754 264.271C542.105 262.389 555.866 258.213 562.688 248.804L563.159 249.157C556.219 258.743 542.281 262.977 531.872 264.859Z" fill="#595959"/>
<path d="M499.585 266.917C478.179 266.917 456.478 264.976 448.186 260.742L448.48 260.213C459.477 265.8 494.469 267.388 520.639 265.682L520.698 266.27C514.053 266.682 506.819 266.917 499.585 266.917Z" fill="#595959"/>
<path d="M501.526 252.391C483.001 252.391 464.241 251.097 457.066 248.274C451.538 246.099 448.186 242.923 447.069 238.747C446.01 234.925 447.245 229.397 453.891 225.398C462.477 220.222 478.179 219.928 488.529 219.752L490.294 219.693C502.585 219.458 518.581 219.576 537.753 220.046C546.809 220.281 557.689 223.28 560.218 229.397C561.571 232.69 560.394 236.454 556.572 240.512C547.809 249.862 526.167 251.627 519.757 251.979C514.053 252.215 507.819 252.391 501.526 252.391ZM454.185 225.927C447.833 229.75 446.657 234.984 447.598 238.63C448.657 242.57 451.95 245.628 457.243 247.745C466.77 251.509 497.115 252.568 519.757 251.391C526.109 251.039 547.515 249.274 556.16 240.1C559.806 236.219 560.982 232.69 559.689 229.632C557.336 224.045 546.868 220.869 537.753 220.634C518.522 220.164 502.585 220.046 490.294 220.281L488.529 220.34C478.238 220.516 462.653 220.811 454.185 225.927Z" fill="#595959"/>
<path fill-rule="evenodd" clip-rule="evenodd" d="M517.934 124.892C513.7 132.067 513.23 141.888 513.759 147.769C514.523 155.591 516.817 160.766 519.875 164.177C525.815 170.823 544.81 172.646 558.748 170.646C565.335 169.705 576.685 165.118 581.449 150.651C588.976 127.892 578.273 116.189 569.922 115.601C562.747 115.13 550.632 114.424 540.458 115.012C533.813 115.424 523.521 115.424 517.934 124.892Z" fill="#ADACAC"/>
<path d="M533.754 170.234C522.228 170.234 510.466 167.999 505.996 163.295C502.585 159.707 500.527 154.414 499.821 147.592C499.174 141.3 499.939 132.302 503.997 125.774C509.348 117.129 519.169 116.659 525.638 116.306L526.756 116.247C534.401 115.835 544.34 116.012 556.278 116.776C560.395 117.07 564.453 119.658 567.158 123.716C569.687 127.48 573.098 136.007 568.099 150.357C562.63 165.882 549.162 168.94 545.163 169.47C541.517 169.94 537.636 170.234 533.754 170.234ZM504.467 126.068C500.468 132.478 499.704 141.359 500.35 147.534C501.056 154.179 503.056 159.354 506.349 162.883C512.23 169.058 530.99 170.822 544.987 168.881C548.927 168.352 562.159 165.412 567.452 150.18C572.392 136.066 569.04 127.774 566.57 124.069C563.982 120.129 560.101 117.658 556.161 117.423C544.222 116.659 534.342 116.482 526.756 116.894L525.638 116.953C518.934 117.247 509.701 117.659 504.467 126.068Z" fill="#595959"/>
<path d="M365.618 320.728L370.499 370.069C370.499 370.069 379.261 373.774 379.614 370.833C383.084 344.839 385.083 328.196 385.083 328.196L365.618 320.728Z" fill="#F5DFDB"/>
<path d="M369.734 367.304C366.558 372.244 358.09 374.361 355.149 375.832C353.561 376.655 352.032 380.713 357.737 380.36C363.206 380.007 379.614 378.596 381.378 376.126C383.084 373.832 381.496 369.48 380.672 367.951C379.849 368.186 373.145 374.655 369.734 367.304Z" fill="#3273AF"/>
<path d="M347.505 141.653C354.562 134.89 368.618 141.359 372.793 141.242C375.439 141.124 378.027 140.301 380.673 139.889C380.673 143.594 380.732 147.299 380.732 151.004C377.733 151.533 374.734 152.18 371.676 152.651C366.971 151.827 360.972 147.593 356.326 148.181C351.68 148.769 345.094 155.238 341.683 152.709C339.742 151.239 345.741 143.3 347.505 141.653Z" fill="#F5DFDB"/>
<path d="M400.845 154.238C393.847 154.415 386.848 154.356 379.85 154.297C379.38 149.357 378.909 144.417 378.439 139.477C382.497 137.595 386.613 135.713 390.671 133.89C393.317 132.655 396.434 134.243 397.081 137.066C398.316 142.829 399.551 148.534 400.845 154.238Z" fill="#DEC9C9"/>
<path d="M390.906 150.416C406.432 147.769 447.775 152.592 453.185 153.356C459.948 133.655 463.3 123.305 463.653 102.369C458.125 96.0759 455.479 81.1971 449.598 75.2574C447.598 93.7823 443.129 95.9583 429.367 114.836C423.604 122.775 404.55 129.774 391.083 135.655C391.083 140.536 391.024 145.476 390.906 150.416Z" fill="url(#paint0_linear_4604_18428)"/>
<path d="M490.941 149.886L515.817 155.002C515.817 155.002 508.348 198.874 504.82 210.754C465.947 216.752 425.25 210.46 406.843 232.69C401.256 239.453 397.492 256.037 395.846 267.681C393.787 281.854 383.672 351.661 383.672 351.661C383.672 351.661 376.086 358.13 365.147 350.896C365.147 350.896 356.385 278.855 367.441 213.459C368.97 204.638 378.379 199.051 384.731 197.169C411.724 189.229 440.776 178.703 467.711 170.528C478.296 167.294 490.941 149.886 490.941 149.886Z" fill="#3273AF"/>
<path d="M445.775 92.6651C442.129 85.9021 446.363 66.495 451.891 61.2609C473.357 41.0893 510.23 55.2624 528.226 76.3749C537.812 87.6664 558.983 128.774 548.75 181.409C548.75 181.409 496.351 164.824 476.532 165.354C471.945 165.471 472.592 138.948 469.652 130.362C463.3 111.719 452.538 105.074 445.775 92.6651Z" fill="#3273AF"/>
<path d="M459.007 75.6102C443.305 72.9637 430.191 60.1433 430.191 60.1433L442.306 43.5002C442.306 43.5002 451.774 52.4981 464.712 55.2621C473.416 57.144 467.711 77.0804 459.007 75.6102Z" fill="#F5DFDB"/>
<path d="M447.657 47.9695C441.423 43.0295 442.305 43.5588 442.305 43.5588L436.601 65.7887C436.601 65.7887 438.836 67.4942 441.541 68.7292C449.362 64.9654 446.892 54.6738 447.657 47.9695Z" fill="#F4C0B8"/>
<path d="M445.128 46.5582C438.894 41.6182 437.483 42.5592 437.483 42.5592L436.601 65.7301C436.542 65.7301 436.601 65.9653 438.365 66.9651C443.54 65.2008 445.716 57.0263 445.128 46.5582Z" fill="#595959"/>
<path d="M414.665 44.0881C413.841 47.8519 412.665 49.7338 411.665 52.6154C411.195 53.9092 412.254 55.3206 413.606 55.203C414.606 55.1442 415.664 55.0854 416.664 55.0266C417.723 59.4961 419.899 67.9647 424.427 69.9054C431.661 72.9635 443.658 61.6132 445.481 49.7337C447.186 38.5012 441.364 27.739 439.365 21.3288C429.838 17.3298 419.663 15.3891 412.724 24.7398C410.136 28.2683 413.371 40.3243 414.665 44.0881Z" fill="#F5DFDB"/>
<path d="M459.831 28.7979C459.301 25.3282 457.361 23.2698 454.479 20.447C452.362 18.3887 453.773 15.5658 451.95 12.743C449.774 9.33201 443.423 11.0375 443.423 11.0375C443.423 11.0375 440.894 7.68535 434.66 6.03869C424.839 3.45107 429.485 8.74392 413.43 12.6842C407.608 14.0956 412.43 17.1537 407.961 20.741C405.02 23.0934 400.786 22.2701 403.315 27.9158C405.079 31.7972 399.728 30.5034 404.844 35.3846C409.902 40.2069 413.195 41.6772 424.369 32.7382C428.779 29.2096 432.19 26.8572 433.19 32.5617C433.719 35.6198 432.543 43.0886 438.601 38.6779C442.952 35.5022 438.601 43.6179 447.657 47.9698C449.421 48.8519 453.597 51.4983 453.597 51.4983C453.597 51.4983 461.536 40.3246 459.831 28.7979Z" fill="#8C8C8C"/>
<path d="M454.126 85.9607C455.714 85.9019 455.42 74.8457 455.42 74.8457L448.187 72.2581C448.187 72.1993 446.422 86.3136 454.126 85.9607Z" fill="url(#paint1_linear_4604_18428)"/>
<path d="M460.125 85.8429C468.77 86.7251 473.239 61.0842 466.241 54.6151C461.183 49.9104 456.831 52.7332 456.831 52.7332C456.831 52.7332 458.243 54.6739 458.596 56.2618C459.831 61.0842 458.772 66.2006 456.949 70.7289C455.596 74.1987 450.657 84.902 460.125 85.8429Z" fill="url(#paint2_linear_4604_18428)"/>
<path d="M441.953 39.3834C441.953 42.1475 441.6 44.8527 439.894 44.8527C438.189 44.8527 435.837 42.0887 435.837 39.3834C435.837 36.6194 437.248 34.3846 438.953 34.3846C440.659 34.3846 442.012 36.6782 441.953 39.3834Z" fill="#F4C0B8"/>
<path d="M418.135 39.501C417.9 38.7366 418.664 37.8546 420.664 38.6778C421.193 38.913 422.78 41.2062 422.427 41.5002C422.133 41.7354 420.84 40.089 420.076 40.0302C419.252 39.9126 418.37 40.2654 418.135 39.501Z" fill="#595959"/>
<path d="M419.252 43.9702C419.017 43.5586 419.076 43.0294 419.428 42.9118C419.722 42.7354 420.134 42.9706 420.369 43.441C420.604 43.8526 420.369 44.2054 420.075 44.323C419.781 44.4406 419.487 44.4406 419.252 43.9702Z" fill="#595959"/>
<path d="M420.31 59.6724C420.075 59.2608 421.722 57.0264 422.074 57.9672C422.251 58.4376 421.486 59.8488 421.134 60.0252C420.84 60.2016 420.546 60.1428 420.31 59.6724Z" fill="#595959"/>
<path d="M400.845 335.195L405.902 385.359C405.902 385.359 415.136 387.594 415.018 384.595C414.195 358.366 421.252 339.371 421.252 339.371L400.845 335.195Z" fill="#F5DFDB"/>
<path d="M412.312 384.359C410.901 385.359 406.843 384.359 405.373 381.125C404.256 386.711 393.258 389.887 392.258 392.063C391.847 393.004 390.318 396.885 395.905 395.592C401.256 394.357 413.959 392.886 415.312 390.181C416.606 387.594 415.665 383.595 415.018 380.654C414.253 381.007 413.253 383.712 412.312 384.359Z" fill="#3273AF"/>
<path d="M367.029 143.711C372.792 143.652 376.497 144.887 380.673 144.887C386.201 144.887 393.728 143.829 399.257 143.123C399.668 146.711 398.198 152.827 398.61 156.414C392.141 157.296 385.789 159.766 379.202 159.178C374.733 158.766 368.205 154.179 364.265 153.944C360.266 153.709 356.678 157.826 353.503 158.12C350.327 158.296 356.737 143.829 367.029 143.711Z" fill="#F5DFDB"/>
<path d="M393.435 158.355C406.549 157.296 454.479 164.001 466.064 158.237C486.824 147.887 495.704 135.654 500.821 117.482C504.055 106.132 507.878 81.4909 496.292 69.7879C483.237 56.6146 470.887 68.9057 467.358 85.1371C462.771 106.073 460.713 119.129 444.011 132.714C436.248 139.065 402.55 138.36 391.494 141.594C392.082 147.181 392.847 152.65 393.435 158.355Z" fill="url(#paint3_linear_4604_18428)"/>
<path d="M403.079 159.59C399.256 159.413 395.493 159.178 391.67 159.002C390.729 153.238 389.788 147.416 388.788 141.653C390.611 141.065 392.435 140.477 394.258 139.888C400.785 137.771 407.49 140.006 408.431 146.181C408.725 147.945 409.372 151.356 409.666 153.121C410.195 156.708 407.078 159.766 403.079 159.59Z" fill="#DEC9C9"/>
<path d="M487.471 166.471C487.471 166.471 510.465 166.765 517.875 168.705C525.991 170.822 538.811 177.527 548.809 181.408C548.809 181.408 549.397 213.93 530.049 233.102C509.23 253.802 436.601 249.333 432.484 265.447C427.956 283.266 425.956 319.787 421.545 359.601C421.075 363.952 401.256 360.306 397.728 360.189C390.259 308.554 375.204 252.744 389.788 229.338C400.021 212.989 448.304 189.465 470.416 180.996C475.591 178.997 487.471 166.471 487.471 166.471Z" fill="#4282BD"/>
<path d="M125.204 262.212H124.616V358.307H125.204V262.212Z" fill="#595959"/>
<path d="M127.322 313.082H126.734V319.727H127.322V313.082Z" fill="#595959"/>
<path d="M127.322 276.738H126.734V311.083H127.322V276.738Z" fill="#595959"/>
<path d="M155.492 372.48H154.904V360.306H93.0362V369.245H92.4481V359.718H155.492V372.48Z" fill="#595959"/>
<path d="M155.197 379.302C151.433 379.302 148.375 376.244 148.375 372.48C148.375 368.716 151.433 365.658 155.197 365.658C158.961 365.658 162.019 368.716 162.019 372.48C162.019 376.244 158.961 379.302 155.197 379.302ZM155.197 366.246C151.786 366.246 148.963 369.069 148.963 372.48C148.963 375.891 151.786 378.714 155.197 378.714C158.608 378.714 161.431 375.891 161.431 372.48C161.431 369.01 158.667 366.246 155.197 366.246Z" fill="#595959"/>
<path d="M92.7423 376.008C88.9785 376.008 85.9204 372.95 85.9204 369.186C85.9204 365.423 88.9785 362.365 92.7423 362.365C96.5061 362.365 99.5642 365.423 99.5642 369.186C99.5642 372.95 96.5061 376.008 92.7423 376.008ZM92.7423 362.953C89.3313 362.953 86.5085 365.775 86.5085 369.186C86.5085 372.597 89.3313 375.42 92.7423 375.42C96.1532 375.42 98.9761 372.597 98.9761 369.186C98.9761 365.775 96.212 362.953 92.7423 362.953Z" fill="#595959"/>
<path d="M56.9958 156.755L56.4808 157.039L88.1522 214.455L88.6671 214.171L56.9958 156.755Z" fill="#595959"/>
<path d="M85.5634 165.47L68.765 224.829L69.3309 224.989L86.1293 165.63L85.5634 165.47Z" fill="#595959"/>
<path fill-rule="evenodd" clip-rule="evenodd" d="M182.309 232.16C190.131 238.218 191.072 246.628 190.072 251.568C188.661 258.213 184.426 262.565 178.722 265.505C167.666 271.151 132.38 272.739 106.386 270.975C94.095 270.151 73.0413 266.27 64.1022 253.979C50.0468 234.63 70.042 224.75 85.5677 224.221C98.8586 223.809 121.441 223.221 140.378 223.751C152.728 224.045 171.9 224.104 182.309 232.16Z" fill="#ADACAC"/>
<path d="M95.2115 269.858C84.7435 267.976 70.8644 263.683 63.9249 254.156L64.3954 253.803C71.2173 263.212 84.9787 267.388 95.3291 269.27L95.2115 269.858Z" fill="#595959"/>
<path d="M127.498 271.916C120.265 271.916 113.031 271.681 106.386 271.269L106.444 270.681C132.615 272.445 167.606 270.799 178.604 265.212L178.898 265.741C170.547 269.975 148.846 271.916 127.498 271.916Z" fill="#595959"/>
<path d="M125.557 257.39C119.264 257.39 113.031 257.213 107.326 256.919C100.916 256.566 79.274 254.802 70.5114 245.451C66.6888 241.394 65.4538 237.689 66.8653 234.336C69.3941 228.22 80.3326 225.221 89.3304 224.986C108.561 224.515 124.498 224.398 136.79 224.633L138.554 224.692C148.904 224.868 164.606 225.162 173.193 230.337C179.838 234.336 181.073 239.806 180.015 243.687C178.897 247.804 175.545 251.038 170.017 253.214C162.842 256.037 144.023 257.39 125.557 257.39ZM122.852 225.162C113.148 225.162 101.974 225.339 89.3304 225.633C80.215 225.868 69.7469 228.985 67.3945 234.63C66.1007 237.689 67.2769 241.217 70.9231 245.099C79.5093 254.273 100.975 256.037 107.326 256.39C129.968 257.566 160.313 256.508 169.782 252.744C175.133 250.627 178.368 247.569 179.426 243.628C180.426 239.982 179.191 234.748 172.84 230.925C164.371 225.868 148.787 225.574 138.495 225.397L136.731 225.339C132.555 225.221 127.909 225.162 122.852 225.162Z" fill="#595959"/>
<path fill-rule="evenodd" clip-rule="evenodd" d="M109.151 129.891C113.385 137.066 113.855 146.887 113.326 152.768C112.561 160.59 110.268 165.765 107.21 169.176C101.27 175.821 82.2746 177.644 68.3368 175.645C61.7501 174.704 50.3999 170.117 45.6363 155.65C38.1087 132.89 48.8121 121.187 57.163 120.599C64.3377 120.129 76.4525 119.423 86.6265 120.011C93.2132 120.364 103.564 120.423 109.151 129.891Z" fill="#ADACAC"/>
<path d="M81.98 174.468C76.9224 173.763 61.5732 171.646 56.4568 157.061C51.6932 143.417 55.5746 134.419 58.3387 130.303C61.5732 125.48 66.4544 122.128 70.8651 121.834C73.1586 121.658 74.6877 121.481 76.0403 121.305C78.8043 120.952 80.8627 120.717 87.7434 121.07L87.6846 121.658C80.8627 121.305 78.8631 121.54 76.0991 121.893C74.7465 122.069 73.2174 122.246 70.9239 122.422C66.7484 122.716 61.9848 125.892 58.8679 130.597C56.1627 134.654 52.3989 143.476 57.0449 156.826C62.0437 171.116 77.1577 173.175 82.0977 173.88L81.98 174.468Z" fill="#595959"/>
<path d="M227.534 364.011C228.416 349.368 232.886 324.903 238.767 301.026C232.827 303.085 223.476 303.32 217.536 301.497C217.125 301.614 216.713 301.673 216.301 301.791C211.479 324.844 219.301 352.837 217.83 366.07C217.477 369.186 216.772 374.362 216.772 374.362L228.357 377.949C228.416 377.949 227.24 368.834 227.534 364.011Z" fill="#F5DFDB"/>
<path d="M217.065 370.892C217.536 371.068 224.593 378.302 224.593 373.362C224.593 370.48 227.651 371.068 228.356 372.774C229.474 375.773 237.766 378.772 237.884 379.949C238.06 381.772 235.061 383.124 231.473 383.065C228.533 383.065 225.122 381.772 222.064 380.066C221.182 379.596 218.947 379.184 217.124 379.302C213.242 379.654 216.889 371.774 217.065 370.892Z" fill="#3273AF"/>
<path d="M231.651 348.544C231.651 348.544 229.592 349.603 224.652 349.603C220.006 349.603 214.008 347.309 214.008 347.309C214.008 347.309 210.127 322.962 211.773 292.381C212.655 275.797 221.594 254.802 218.301 251.038C214.772 247.098 158.609 249.862 127.499 223.751C103.799 203.814 124.088 142.476 124.088 142.476L152.199 149.651C152.199 149.651 155.669 160.825 162.903 170.234C180.428 193.111 239.531 204.167 254.292 228.162C266.348 247.804 246.177 292.793 238.884 323.492C237.532 328.902 231.651 348.544 231.651 348.544Z" fill="#3273AF"/>
<path d="M209.302 309.848C209.244 300.379 217.418 293.499 222.946 286.677C222.946 286.677 221.123 309.377 212.596 335.665C212.596 335.665 209.302 317.434 209.302 309.848Z" fill="#595959"/>
<path d="M200.011 370.127C201.246 363.247 205.363 331.019 211.244 307.143C205.304 309.201 195.953 309.436 190.013 307.613C189.602 307.731 189.19 307.789 188.778 307.907C183.956 330.96 190.249 373.127 190.131 373.95C189.837 376.185 189.543 379.184 189.543 379.184C189.543 379.184 193.13 384.771 195.13 385.418C196.541 385.888 200.893 384.124 200.893 384.124C200.893 384.124 199.129 374.832 200.011 370.127Z" fill="#F5DFDB"/>
<path d="M189.542 377.008C190.013 377.185 196.658 384.418 197.07 379.478C197.305 376.362 200.011 377.008 200.657 378.949C201.598 382.007 210.243 384.889 210.361 386.065C210.537 387.888 207.538 389.241 203.951 389.182C201.01 389.182 197.599 387.888 194.541 386.183C193.659 385.712 191.424 385.301 189.601 385.418C185.72 385.771 189.307 377.891 189.542 377.008Z" fill="#3273AF"/>
<path d="M204.069 354.66C204.069 354.66 202.01 355.719 197.07 355.719C192.424 355.719 186.426 353.425 186.426 353.425C186.426 353.425 182.544 329.078 184.191 298.497C185.073 281.913 194.012 260.918 190.719 257.154C187.19 253.214 131.027 255.978 99.9173 229.867C76.2171 209.931 96.5063 148.592 96.5063 148.592C96.5063 148.592 104.798 151.004 118.031 152.768C134.144 154.885 138.437 153.062 138.437 153.062C138.437 153.062 143.495 174.998 150.729 184.407C168.254 207.284 211.949 210.225 226.71 234.219C238.766 253.861 218.595 298.85 211.302 329.549C209.95 335.018 204.069 354.66 204.069 354.66Z" fill="#4184C1"/>
<path d="M134.262 64.495C142.495 71.6698 162.138 79.0797 184.544 66.9062C181.074 55.7912 180.957 42.7355 181.074 36.8546C182.603 50.0279 185.662 56.4969 186.72 65.9652C187.779 65.6712 192.954 64.0245 194.895 61.9074C188.837 60.2019 187.779 31.6794 184.485 21.6818C177.958 1.74538 165.431 -0.90104 149.611 0.216339C129.616 1.68657 127.558 26.857 109.151 47.4403C113.502 45.4996 127.675 58.7905 134.262 64.495Z" fill="#8C8C8C"/>
<path d="M211.008 101.898C200.893 112.189 188.307 112.954 184.544 111.366C177.016 108.132 167.783 77.139 167.783 77.139C167.783 77.139 139.79 65.73 143.024 78.7857C147.905 98.4869 159.197 125.128 178.957 132.655C189.719 136.772 209.479 118.07 218.594 108.073C218.594 108.132 219.241 93.5469 211.008 101.898Z" fill="#F5DFDB"/>
<path d="M216.947 109.484C218.241 108.367 226.769 101.604 231.003 95.429C233.179 92.2533 235.649 86.9604 235.825 84.3728C235.943 82.2557 234.531 80.609 233.061 82.3733C224.416 92.5473 221.77 90.489 224.357 88.9011C226.416 87.6073 229.121 83.9611 227.945 82.9026C227.121 82.1969 222.475 85.6666 220.3 86.784C215.301 89.3716 209.596 104.603 209.596 104.603L216.947 109.484Z" fill="#F5DFDB"/>
<path d="M183.78 94.1353C170.901 78.6684 150.788 49.2637 142.79 55.7916C134.85 62.2606 141.672 90.842 151.493 110.308C154.022 115.307 159.021 120.776 165.372 115.718C173.488 109.191 187.955 99.0753 183.78 94.1353Z" fill="#3273AF"/>
<path d="M121.324 35.6784L120.853 35.3256C123.794 31.6206 126.205 27.5627 128.557 23.5637C135.379 12.0959 141.848 1.21613 158.785 5.86207L158.609 6.45017C142.084 1.92184 136.085 12.0959 129.087 23.9166C126.734 27.8568 124.323 31.9146 121.324 35.6784Z" fill="#8C8C8C"/>
<path d="M120.678 48.3811L120.148 48.1458C122.089 44.2644 124.5 40.383 126.794 36.5604C131.028 29.7385 135.38 22.6225 137.321 15.2714L137.909 15.4478C135.909 22.9166 131.557 30.0325 127.323 36.9132C125.03 40.6182 122.618 44.4996 120.678 48.3811Z" fill="black"/>
<path d="M156.08 121.305C153.199 125.422 155.727 139.124 156.08 148.651C156.198 151.827 153.199 155.532 150.023 155.591C121.324 156.061 110.327 155.356 100.211 151.18C97.8002 150.18 93.3307 146.769 93.9776 142.711C97.0945 124.481 98.9176 92.6647 104.975 78.4328C115.914 52.6743 130.733 49.8514 142.731 50.1455C156.374 50.4983 160.138 67.3766 161.432 76.9038C163.196 89.9007 165.96 99.7218 165.019 105.426C163.726 113.307 158.786 117.482 156.08 121.305Z" fill="#3273AF"/>
<path d="M142.436 51.4394C146.729 51.9099 154.786 59.1435 155.727 63.3189C157.256 69.8468 153.904 70.8465 147.317 65.8477C141.848 61.6135 133.262 50.3809 142.436 51.4394Z" fill="#F5DFDB"/>
<path d="M147.964 43.5589C151.669 38.9718 155.198 30.2092 155.198 30.2092L164.49 44.9115C164.49 44.9115 157.903 63.4365 151.963 64.9067C149.552 65.4948 138.908 56.497 141.613 51.7334C142.907 49.6751 146.082 45.9113 147.964 43.5589Z" fill="#F5DFDB"/>
<path d="M151.611 37.5605C154.669 42.6182 158.374 47.2053 163.137 50.7338C161.549 52.851 159.844 55.3798 159.844 55.3798C159.844 55.3798 153.081 59.2612 148.964 41.5596C148.494 39.6777 149.611 40.1482 151.611 37.5605Z" fill="#F4C0B8"/>
<path d="M156.786 42.0887C158.844 45.1468 161.02 48.1461 163.608 50.5573C162.432 51.9687 160.315 54.8504 160.315 54.8504C160.315 54.8504 154.963 55.6149 149.67 41.089C149.2 39.854 155.963 41.5594 156.786 42.0887Z" fill="#595959"/>
<path d="M173.9 30.9147C173.605 28.68 172.135 21.9757 172.135 21.9757C172.135 21.9757 168.313 23.1519 164.196 25.6807C159.197 28.7388 153.787 29.7974 152.493 29.9738C151.434 30.1502 150.611 30.0914 150.317 30.0326C148.141 29.5033 147.082 39.8538 154.786 48.3811C165.784 60.6135 171.959 54.9678 173.076 50.7335C173.9 47.6754 174.664 43.794 174.664 41.5004C174.605 38.7952 174.252 33.5612 173.9 30.9147Z" fill="#F5DFDB"/>
<path d="M174.429 35.855C173.959 34.4438 172.312 40.6766 174.37 41.9114C175.135 42.3818 177.487 41.3822 177.075 40.5002C176.546 39.2654 175.664 39.5594 174.429 35.855Z" fill="#FF9EAB"/>
<path d="M174.31 45.7347C175.016 45.6171 175.192 46.1463 174.369 47.0283C174.134 47.3223 174.487 48.2631 173.664 48.2043C172.899 48.1455 170.782 47.4399 170.371 46.3227C170.371 46.2639 172.605 46.0287 174.31 45.7347Z" fill="#595959"/>
<path d="M171.958 34.5022C171.429 34.6198 171.017 34.3846 170.371 34.5022C169.195 34.6786 168.607 35.8546 168.607 35.8546C168.607 35.8546 168.665 33.679 170.077 33.4438C171.605 33.1498 172.429 34.3846 171.958 34.5022Z" fill="#595959"/>
<path d="M170.253 36.2076C170.312 35.7372 170.606 35.4432 170.9 35.4432C171.253 35.4432 171.488 35.8548 171.429 36.2664C171.37 36.7368 171.194 36.8544 170.841 36.8544C170.547 36.8544 170.253 36.678 170.253 36.2076Z" fill="#595959"/>
<path d="M164.549 11.5081C158.08 9.92026 147.494 14.5074 150.082 22.035C151.846 27.269 157.315 26.0928 162.961 28.1512C168.136 30.0331 172.371 36.6785 181.074 31.6209C181.074 31.6209 178.957 15.0367 164.549 11.5081Z" fill="#8C8C8C"/>
<path d="M153.787 12.7425C161.314 11.2135 162.843 19.0939 161.432 26.3863C159.432 36.8544 153.787 33.3846 148.082 43.6174C148.082 43.6174 135.556 16.4475 153.787 12.7425Z" fill="#8C8C8C"/>
<path d="M157.962 33.8552L157.609 33.3847C157.668 33.3259 162.784 29.2092 161.608 20.5642L162.196 20.5054C163.431 29.5033 158.021 33.7964 157.962 33.8552Z" fill="black"/>
<path d="M156.786 35.0905C156.962 32.444 156.08 30.915 153.492 31.5031C151.728 31.8559 150.964 39.3247 154.198 40.6773C155.374 41.1478 156.609 38.0309 156.786 35.0905Z" fill="#F4C0B8"/>
<path d="M154.375 38.5603C154.492 38.3251 154.845 38.2075 155.139 38.3251C155.374 38.4427 155.492 38.7955 155.374 39.0895C155.257 39.3247 155.022 39.3247 154.728 39.2071C154.434 39.0307 154.198 38.7955 154.375 38.5603Z" fill="#595959"/>
<path d="M156.316 121.481L155.904 121.07C168.489 109.308 165.49 97.8401 162.549 86.7251C161.197 81.6675 159.844 76.4335 159.962 71.2582H160.55C160.432 76.3158 161.785 81.5499 163.079 86.5487C166.078 97.8401 169.136 109.484 156.316 121.481Z" fill="white"/>
<path d="M257.174 155.237C250.234 154.061 241.589 155.061 241.06 153.944C240.354 152.415 249.293 153.885 249.881 151.532C250.352 149.886 245.353 150.003 241.119 148.945C234.885 147.357 217.713 151.062 217.713 151.062L219.065 163.059C223.005 162.765 233.297 166.058 241.883 166.411C245.529 166.588 251.704 161.706 258.291 161.589C261.29 161.53 262.466 156.12 257.174 155.237Z" fill="#F5DFDB"/>
<path d="M221.417 150.827C204.421 151.944 188.484 152.768 179.662 145.593C173.311 140.418 150.375 111.366 147.964 99.898C145.141 86.7247 128.851 87.7832 129.91 101.192C131.497 121.422 145.788 152.297 164.431 162.354C179.545 170.469 212.596 162.471 226.063 162.765C226.004 162.765 233.12 150.062 221.417 150.827Z" fill="#F5DFDB"/>
<path d="M158.197 112.425C161.255 101.662 137.496 64.5538 128.498 69.6702C119.559 74.7866 118.089 100.075 124.616 120.834C126.263 126.186 130.497 130.714 138.319 126.01C147.846 120.129 156.432 118.6 158.197 112.425Z" fill="#3273AF"/>
<path d="M125.088 122.893C120.736 114.248 118.03 95.4286 121.088 84.0784L121.677 84.2548C118.677 95.4286 121.324 114.071 125.617 122.657L125.088 122.893Z" fill="white"/>
<path d="M209.655 125.186L234.12 71.2582L257.997 75.7866L228.122 132.655L209.655 125.186Z" fill="#FDFDFD"/>
<path d="M246.998 72.7866C246.88 72.375 245.351 71.9634 245.351 71.9634C245.351 71.9634 245.763 70.3759 245.234 70.1407C244.116 69.7291 243.235 71.5518 243.235 71.5518C243.235 71.5518 242.059 71.3166 241.765 71.5518C241.059 72.081 240.412 74.0214 240.412 74.0214L245.998 75.315C246.057 75.3738 247.35 73.845 246.998 72.7866ZM244.822 72.1398C244.646 72.4338 244.293 72.6102 244.058 72.4338C243.822 72.3162 243.764 71.9634 243.94 71.6106C244.116 71.3166 244.469 71.1403 244.704 71.3166C244.94 71.4342 244.998 71.8458 244.822 72.1398Z" fill="#595959"/>
<path d="M233.16 82.0644L233.046 82.6414L247.011 85.3882L247.124 84.8111L233.16 82.0644Z" fill="black"/>
<path d="M231.95 88.06L231.837 88.637L236.971 89.6469L237.085 89.07L231.95 88.06Z" fill="black"/>
<path d="M239.01 89.4099L238.897 89.9868L242.185 90.6341L242.299 90.0571L239.01 89.4099Z" fill="black"/>
<path d="M229.844 93.4538L229.731 94.0307L237.231 95.5061L237.345 94.9292L229.844 93.4538Z" fill="black"/>
<path d="M228.748 104.657L228.634 105.234L236.134 106.709L236.248 106.132L228.748 104.657Z" fill="black"/>
<path d="M224.989 112.308L224.875 112.885L232.375 114.36L232.489 113.783L224.989 112.308Z" fill="black"/>
<path d="M226.221 98.0378L226.108 98.6149L238.226 100.998L238.339 100.421L226.221 98.0378Z" fill="black"/>
<path d="M228.298 133.008L217.183 128.538L217.359 128.009L228.004 132.302L236.178 116.659L236.707 116.953L228.298 133.008Z" fill="black"/>
<path d="M222.241 105.014L223.887 101.957L226.886 102.839L225.181 105.72L222.241 105.014Z" fill="#FB4143"/>
<path d="M224.123 104.661L224.828 100.663L225.416 100.781L224.887 103.603L229.65 101.075L229.885 101.604L224.123 104.661Z" fill="black"/>
<path d="M218.536 112.659L220.123 109.602L223.122 110.484L221.476 113.365L218.536 112.659Z" fill="#FB4143"/>
<path d="M220.359 112.307L221.123 108.308L221.652 108.426L221.182 111.248L225.886 108.72L226.18 109.249L220.359 112.307Z" fill="black"/>
<path fill-rule="evenodd" clip-rule="evenodd" d="M312.454 166.53H428.603V165.236C428.603 162.413 427.78 160.061 424.251 160.061H316.042L312.396 162.884V166.53H312.454Z" fill="#595959"/>
<path fill-rule="evenodd" clip-rule="evenodd" d="M335.625 74.493C335.625 74.493 338.095 73.5521 338.801 76.669L355.091 165.06L343.271 163.766L335.625 74.493Z" fill="#595959"/>
<path fill-rule="evenodd" clip-rule="evenodd" d="M301.927 80.3137L335.625 74.4916L350.857 162.882H312.395L298.046 85.783C297.34 83.0189 298.752 80.843 301.927 80.3137Z" fill="#3273AF"/>
<path fill-rule="evenodd" clip-rule="evenodd" d="M360.089 163.119H365.382V162.707C365.382 162.236 365.088 161.884 364.735 161.884H360.795C360.442 161.884 360.148 162.236 360.148 162.707V163.119H360.089ZM367.205 163.119H372.498V162.707C372.498 162.236 372.204 161.884 371.851 161.884H367.911C367.558 161.884 367.264 162.236 367.264 162.707V163.119H367.205Z" fill="white"/>
<path fill-rule="evenodd" clip-rule="evenodd" d="M322.393 116.188C323.863 115.894 324.686 114.012 324.274 111.954C323.863 109.896 322.275 108.426 320.805 108.72C319.335 109.014 318.512 110.896 318.923 112.954C319.335 115.012 320.923 116.423 322.393 116.188Z" fill="white"/>
<path fill-rule="evenodd" clip-rule="evenodd" d="M419.546 177.821H436.072L429.838 396.18H425.78L419.546 177.821Z" fill="#595959"/>
<path fill-rule="evenodd" clip-rule="evenodd" d="M173.193 177.821H189.66L183.426 396.18H179.427L173.193 177.821Z" fill="#595959"/>
<path d="M455.42 165.53H154.257V178.997H455.42V165.53Z" fill="#ADACAC"/>
<path d="M346.093 331.607H334.508V332.195H346.093V331.607Z" fill="black"/>
</g>
<defs>
<filter id="filter0_d_4604_18428" x="0" y="0" width="626.383" height="412.18" filterUnits="userSpaceOnUse" color-interpolation-filters="sRGB">
<feFlood flood-opacity="0" result="BackgroundImageFix"/>
<feColorMatrix in="SourceAlpha" type="matrix" values="0 0 0 0 0 0 0 0 0 0 0 0 0 0 0 0 0 0 127 0" result="hardAlpha"/>
<feOffset dx="8" dy="8"/>
<feGaussianBlur stdDeviation="4"/>
<feComposite in2="hardAlpha" operator="out"/>
<feColorMatrix type="matrix" values="0 0 0 0 0 0 0 0 0 0 0 0 0 0 0 0 0 0 0.25 0"/>
<feBlend mode="normal" in2="BackgroundImageFix" result="effect1_dropShadow_4604_18428"/>
<feBlend mode="normal" in="SourceGraphic" in2="effect1_dropShadow_4604_18428" result="shape"/>
</filter>
<linearGradient id="paint0_linear_4604_18428" x1="395.571" y1="108.754" x2="462.478" y2="119.752" gradientUnits="userSpaceOnUse">
<stop stop-color="#E5E8E5"/>
<stop offset="1" stop-color="#B7BFC3"/>
</linearGradient>
<linearGradient id="paint1_linear_4604_18428" x1="448.152" y1="79.2157" x2="455.609" y2="78.8558" gradientUnits="userSpaceOnUse">
<stop stop-color="#E5E8E5"/>
<stop offset="1" stop-color="#B7BFC3"/>
</linearGradient>
<linearGradient id="paint2_linear_4604_18428" x1="453.811" y1="69.1446" x2="469.841" y2="68.2341" gradientUnits="userSpaceOnUse">
<stop stop-color="#E5E8E5"/>
<stop offset="1" stop-color="#B7BFC3"/>
</linearGradient>
<linearGradient id="paint3_linear_4604_18428" x1="396.983" y1="104.963" x2="501.168" y2="120.339" gradientUnits="userSpaceOnUse">
<stop stop-color="#E5E8E5"/>
<stop offset="1" stop-color="#B7BFC3"/>
</linearGradient>
</defs>
</svg>
